# xmcd
#
# Track frame offsets:
#	150
#	16824
#	29872
#	49263
#	65801
#	84233
#	98486
#	119817
#	135461
#	152797
#	170221
#
# Disc length: 2460 seconds
#
# Revision: 0
# Processed by: cddbd v1.5.1PL0 Copyright (c) Steve Scherf et al.
# Submitted via: dBpowerAMP V4.0
#
DISCID=98099a0b
DTITLE=Michael Martin Murphey - Tonight We Ride
DYEAR=1986
DGENRE=Country
TTITLE0=Tonight We Ride
TTITLE1=Rollin' Nowhere
TTITLE2=Innocent Hearts
TTITLE3=Close To My Heart
TTITLE4=Face To Face With The Night
TTITLE5=Building Bridges (duet with Pam Tillis)
TTITLE6=Fiddlin' Man (featuring Mark O'Connor)
TTITLE7=I'll Break Out Again Tonight
TTITLE8=One That Got Away
TTITLE9=Santa Fe Cantina
TTITLE10=Ghost Town (Message From The Ghost Ranch)
EXTD=2005 CD Re-release
EXTT0=
EXTT1=
EXTT2=
EXTT3=
EXTT4=
EXTT5=
EXTT6=
EXTT7=
EXTT8=
EXTT9=
EXTT10=
PLAYORDER=
